%TF.GenerationSoftware,KiCad,Pcbnew,(6.0.8)*%
%TF.CreationDate,2023-01-21T17:58:08-05:00*%
%TF.ProjectId,Blinky 5.0,426c696e-6b79-4203-952e-302e6b696361,rev?*%
%TF.SameCoordinates,Original*%
%TF.FileFunction,Legend,Top*%
%TF.FilePolarity,Positive*%
%FSLAX46Y46*%
G04 Gerber Fmt 4.6, Leading zero omitted, Abs format (unit mm)*
G04 Created by KiCad (PCBNEW (6.0.8)) date 2023-01-21 17:58:08*
%MOMM*%
%LPD*%
G01*
G04 APERTURE LIST*
%ADD10C,0.300000*%
%ADD11C,0.150000*%
%ADD12C,0.120000*%
G04 APERTURE END LIST*
D10*
X138050000Y-109878571D02*
X138050000Y-108378571D01*
X138550000Y-109450000D01*
X139050000Y-108378571D01*
X139050000Y-109878571D01*
X140407142Y-109878571D02*
X140407142Y-109092857D01*
X140335714Y-108950000D01*
X140192857Y-108878571D01*
X139907142Y-108878571D01*
X139764285Y-108950000D01*
X140407142Y-109807142D02*
X140264285Y-109878571D01*
X139907142Y-109878571D01*
X139764285Y-109807142D01*
X139692857Y-109664285D01*
X139692857Y-109521428D01*
X139764285Y-109378571D01*
X139907142Y-109307142D01*
X140264285Y-109307142D01*
X140407142Y-109235714D01*
X141764285Y-109878571D02*
X141764285Y-108378571D01*
X141764285Y-109807142D02*
X141621428Y-109878571D01*
X141335714Y-109878571D01*
X141192857Y-109807142D01*
X141121428Y-109735714D01*
X141050000Y-109592857D01*
X141050000Y-109164285D01*
X141121428Y-109021428D01*
X141192857Y-108950000D01*
X141335714Y-108878571D01*
X141621428Y-108878571D01*
X141764285Y-108950000D01*
X143050000Y-109807142D02*
X142907142Y-109878571D01*
X142621428Y-109878571D01*
X142478571Y-109807142D01*
X142407142Y-109664285D01*
X142407142Y-109092857D01*
X142478571Y-108950000D01*
X142621428Y-108878571D01*
X142907142Y-108878571D01*
X143050000Y-108950000D01*
X143121428Y-109092857D01*
X143121428Y-109235714D01*
X142407142Y-109378571D01*
X144907142Y-109878571D02*
X144907142Y-108378571D01*
X144907142Y-108950000D02*
X145050000Y-108878571D01*
X145335714Y-108878571D01*
X145478571Y-108950000D01*
X145550000Y-109021428D01*
X145621428Y-109164285D01*
X145621428Y-109592857D01*
X145550000Y-109735714D01*
X145478571Y-109807142D01*
X145335714Y-109878571D01*
X145050000Y-109878571D01*
X144907142Y-109807142D01*
X146121428Y-108878571D02*
X146478571Y-109878571D01*
X146835714Y-108878571D02*
X146478571Y-109878571D01*
X146335714Y-110235714D01*
X146264285Y-110307142D01*
X146121428Y-110378571D01*
X148407142Y-108378571D02*
X149407142Y-109878571D01*
X149407142Y-108378571D02*
X148407142Y-109878571D01*
X150621428Y-109878571D02*
X150621428Y-109092857D01*
X150550000Y-108950000D01*
X150407142Y-108878571D01*
X150121428Y-108878571D01*
X149978571Y-108950000D01*
X150621428Y-109807142D02*
X150478571Y-109878571D01*
X150121428Y-109878571D01*
X149978571Y-109807142D01*
X149907142Y-109664285D01*
X149907142Y-109521428D01*
X149978571Y-109378571D01*
X150121428Y-109307142D01*
X150478571Y-109307142D01*
X150621428Y-109235714D01*
X151335714Y-108878571D02*
X151335714Y-109878571D01*
X151335714Y-109021428D02*
X151407142Y-108950000D01*
X151550000Y-108878571D01*
X151764285Y-108878571D01*
X151907142Y-108950000D01*
X151978571Y-109092857D01*
X151978571Y-109878571D01*
X153335714Y-109878571D02*
X153335714Y-108378571D01*
X153335714Y-109807142D02*
X153192857Y-109878571D01*
X152907142Y-109878571D01*
X152764285Y-109807142D01*
X152692857Y-109735714D01*
X152621428Y-109592857D01*
X152621428Y-109164285D01*
X152692857Y-109021428D01*
X152764285Y-108950000D01*
X152907142Y-108878571D01*
X153192857Y-108878571D01*
X153335714Y-108950000D01*
X154621428Y-109807142D02*
X154478571Y-109878571D01*
X154192857Y-109878571D01*
X154050000Y-109807142D01*
X153978571Y-109664285D01*
X153978571Y-109092857D01*
X154050000Y-108950000D01*
X154192857Y-108878571D01*
X154478571Y-108878571D01*
X154621428Y-108950000D01*
X154692857Y-109092857D01*
X154692857Y-109235714D01*
X153978571Y-109378571D01*
X155335714Y-109878571D02*
X155335714Y-108878571D01*
X155335714Y-109164285D02*
X155407142Y-109021428D01*
X155478571Y-108950000D01*
X155621428Y-108878571D01*
X155764285Y-108878571D01*
X136914285Y-84250000D02*
X136771428Y-84178571D01*
X136557142Y-84178571D01*
X136342857Y-84250000D01*
X136200000Y-84392857D01*
X136128571Y-84535714D01*
X136057142Y-84821428D01*
X136057142Y-85035714D01*
X136128571Y-85321428D01*
X136200000Y-85464285D01*
X136342857Y-85607142D01*
X136557142Y-85678571D01*
X136700000Y-85678571D01*
X136914285Y-85607142D01*
X136985714Y-85535714D01*
X136985714Y-85035714D01*
X136700000Y-85035714D01*
X138200000Y-85607142D02*
X138057142Y-85678571D01*
X137771428Y-85678571D01*
X137628571Y-85607142D01*
X137557142Y-85464285D01*
X137557142Y-84892857D01*
X137628571Y-84750000D01*
X137771428Y-84678571D01*
X138057142Y-84678571D01*
X138200000Y-84750000D01*
X138271428Y-84892857D01*
X138271428Y-85035714D01*
X137557142Y-85178571D01*
X138700000Y-84678571D02*
X139271428Y-84678571D01*
X138914285Y-84178571D02*
X138914285Y-85464285D01*
X138985714Y-85607142D01*
X139128571Y-85678571D01*
X139271428Y-85678571D01*
X139557142Y-84678571D02*
X140128571Y-84678571D01*
X139771428Y-84178571D02*
X139771428Y-85464285D01*
X139842857Y-85607142D01*
X139985714Y-85678571D01*
X140128571Y-85678571D01*
X140628571Y-85678571D02*
X140628571Y-84678571D01*
X140628571Y-84178571D02*
X140557142Y-84250000D01*
X140628571Y-84321428D01*
X140700000Y-84250000D01*
X140628571Y-84178571D01*
X140628571Y-84321428D01*
X141342857Y-84678571D02*
X141342857Y-85678571D01*
X141342857Y-84821428D02*
X141414285Y-84750000D01*
X141557142Y-84678571D01*
X141771428Y-84678571D01*
X141914285Y-84750000D01*
X141985714Y-84892857D01*
X141985714Y-85678571D01*
X143342857Y-84678571D02*
X143342857Y-85892857D01*
X143271428Y-86035714D01*
X143200000Y-86107142D01*
X143057142Y-86178571D01*
X142842857Y-86178571D01*
X142700000Y-86107142D01*
X143342857Y-85607142D02*
X143200000Y-85678571D01*
X142914285Y-85678571D01*
X142771428Y-85607142D01*
X142700000Y-85535714D01*
X142628571Y-85392857D01*
X142628571Y-84964285D01*
X142700000Y-84821428D01*
X142771428Y-84750000D01*
X142914285Y-84678571D01*
X143200000Y-84678571D01*
X143342857Y-84750000D01*
X144985714Y-84678571D02*
X145557142Y-84678571D01*
X145200000Y-84178571D02*
X145200000Y-85464285D01*
X145271428Y-85607142D01*
X145414285Y-85678571D01*
X145557142Y-85678571D01*
X146271428Y-85678571D02*
X146128571Y-85607142D01*
X146057142Y-85535714D01*
X145985714Y-85392857D01*
X145985714Y-84964285D01*
X146057142Y-84821428D01*
X146128571Y-84750000D01*
X146271428Y-84678571D01*
X146485714Y-84678571D01*
X146628571Y-84750000D01*
X146700000Y-84821428D01*
X146771428Y-84964285D01*
X146771428Y-85392857D01*
X146700000Y-85535714D01*
X146628571Y-85607142D01*
X146485714Y-85678571D01*
X146271428Y-85678571D01*
X149057142Y-84892857D02*
X149271428Y-84964285D01*
X149342857Y-85035714D01*
X149414285Y-85178571D01*
X149414285Y-85392857D01*
X149342857Y-85535714D01*
X149271428Y-85607142D01*
X149128571Y-85678571D01*
X148557142Y-85678571D01*
X148557142Y-84178571D01*
X149057142Y-84178571D01*
X149200000Y-84250000D01*
X149271428Y-84321428D01*
X149342857Y-84464285D01*
X149342857Y-84607142D01*
X149271428Y-84750000D01*
X149200000Y-84821428D01*
X149057142Y-84892857D01*
X148557142Y-84892857D01*
X150271428Y-85678571D02*
X150128571Y-85607142D01*
X150057142Y-85464285D01*
X150057142Y-84178571D01*
X150842857Y-85678571D02*
X150842857Y-84678571D01*
X150842857Y-84178571D02*
X150771428Y-84250000D01*
X150842857Y-84321428D01*
X150914285Y-84250000D01*
X150842857Y-84178571D01*
X150842857Y-84321428D01*
X151557142Y-84678571D02*
X151557142Y-85678571D01*
X151557142Y-84821428D02*
X151628571Y-84750000D01*
X151771428Y-84678571D01*
X151985714Y-84678571D01*
X152128571Y-84750000D01*
X152200000Y-84892857D01*
X152200000Y-85678571D01*
X152914285Y-85678571D02*
X152914285Y-84178571D01*
X153057142Y-85107142D02*
X153485714Y-85678571D01*
X153485714Y-84678571D02*
X152914285Y-85250000D01*
X153985714Y-84678571D02*
X154342857Y-85678571D01*
X154700000Y-84678571D02*
X154342857Y-85678571D01*
X154200000Y-86035714D01*
X154128571Y-86107142D01*
X153985714Y-86178571D01*
X157128571Y-84178571D02*
X156414285Y-84178571D01*
X156342857Y-84892857D01*
X156414285Y-84821428D01*
X156557142Y-84750000D01*
X156914285Y-84750000D01*
X157057142Y-84821428D01*
X157128571Y-84892857D01*
X157200000Y-85035714D01*
X157200000Y-85392857D01*
X157128571Y-85535714D01*
X157057142Y-85607142D01*
X156914285Y-85678571D01*
X156557142Y-85678571D01*
X156414285Y-85607142D01*
X156342857Y-85535714D01*
X157842857Y-85535714D02*
X157914285Y-85607142D01*
X157842857Y-85678571D01*
X157771428Y-85607142D01*
X157842857Y-85535714D01*
X157842857Y-85678571D01*
X158842857Y-84178571D02*
X158985714Y-84178571D01*
X159128571Y-84250000D01*
X159200000Y-84321428D01*
X159271428Y-84464285D01*
X159342857Y-84750000D01*
X159342857Y-85107142D01*
X159271428Y-85392857D01*
X159200000Y-85535714D01*
X159128571Y-85607142D01*
X158985714Y-85678571D01*
X158842857Y-85678571D01*
X158700000Y-85607142D01*
X158628571Y-85535714D01*
X158557142Y-85392857D01*
X158485714Y-85107142D01*
X158485714Y-84750000D01*
X158557142Y-84464285D01*
X158628571Y-84321428D01*
X158700000Y-84250000D01*
X158842857Y-84178571D01*
D11*
%TO.C,U1*%
X146009523Y-92888095D02*
X146009523Y-93940476D01*
X146071428Y-94064285D01*
X146133333Y-94126190D01*
X146257142Y-94188095D01*
X146504761Y-94188095D01*
X146628571Y-94126190D01*
X146690476Y-94064285D01*
X146752380Y-93940476D01*
X146752380Y-92888095D01*
X148052380Y-94188095D02*
X147309523Y-94188095D01*
X147680952Y-94188095D02*
X147680952Y-92888095D01*
X147557142Y-93073809D01*
X147433333Y-93197619D01*
X147309523Y-93259523D01*
%TO.C,R3*%
X137688095Y-97216666D02*
X137069047Y-97650000D01*
X137688095Y-97959523D02*
X136388095Y-97959523D01*
X136388095Y-97464285D01*
X136450000Y-97340476D01*
X136511904Y-97278571D01*
X136635714Y-97216666D01*
X136821428Y-97216666D01*
X136945238Y-97278571D01*
X137007142Y-97340476D01*
X137069047Y-97464285D01*
X137069047Y-97959523D01*
X136388095Y-96783333D02*
X136388095Y-95978571D01*
X136883333Y-96411904D01*
X136883333Y-96226190D01*
X136945238Y-96102380D01*
X137007142Y-96040476D01*
X137130952Y-95978571D01*
X137440476Y-95978571D01*
X137564285Y-96040476D01*
X137626190Y-96102380D01*
X137688095Y-96226190D01*
X137688095Y-96597619D01*
X137626190Y-96721428D01*
X137564285Y-96783333D01*
%TO.C,R2*%
X156788095Y-100216666D02*
X156169047Y-100650000D01*
X156788095Y-100959523D02*
X155488095Y-100959523D01*
X155488095Y-100464285D01*
X155550000Y-100340476D01*
X155611904Y-100278571D01*
X155735714Y-100216666D01*
X155921428Y-100216666D01*
X156045238Y-100278571D01*
X156107142Y-100340476D01*
X156169047Y-100464285D01*
X156169047Y-100959523D01*
X155611904Y-99721428D02*
X155550000Y-99659523D01*
X155488095Y-99535714D01*
X155488095Y-99226190D01*
X155550000Y-99102380D01*
X155611904Y-99040476D01*
X155735714Y-98978571D01*
X155859523Y-98978571D01*
X156045238Y-99040476D01*
X156788095Y-99783333D01*
X156788095Y-98978571D01*
%TO.C,R1*%
X156688095Y-94216666D02*
X156069047Y-94650000D01*
X156688095Y-94959523D02*
X155388095Y-94959523D01*
X155388095Y-94464285D01*
X155450000Y-94340476D01*
X155511904Y-94278571D01*
X155635714Y-94216666D01*
X155821428Y-94216666D01*
X155945238Y-94278571D01*
X156007142Y-94340476D01*
X156069047Y-94464285D01*
X156069047Y-94959523D01*
X156688095Y-92978571D02*
X156688095Y-93721428D01*
X156688095Y-93350000D02*
X155388095Y-93350000D01*
X155573809Y-93473809D01*
X155697619Y-93597619D01*
X155759523Y-93721428D01*
%TO.C,D1*%
X137588095Y-102959523D02*
X136288095Y-102959523D01*
X136288095Y-102650000D01*
X136350000Y-102464285D01*
X136473809Y-102340476D01*
X136597619Y-102278571D01*
X136845238Y-102216666D01*
X137030952Y-102216666D01*
X137278571Y-102278571D01*
X137402380Y-102340476D01*
X137526190Y-102464285D01*
X137588095Y-102650000D01*
X137588095Y-102959523D01*
X137588095Y-100978571D02*
X137588095Y-101721428D01*
X137588095Y-101350000D02*
X136288095Y-101350000D01*
X136473809Y-101473809D01*
X136597619Y-101597619D01*
X136659523Y-101721428D01*
%TO.C,C1*%
X137464285Y-92216666D02*
X137526190Y-92278571D01*
X137588095Y-92464285D01*
X137588095Y-92588095D01*
X137526190Y-92773809D01*
X137402380Y-92897619D01*
X137278571Y-92959523D01*
X137030952Y-93021428D01*
X136845238Y-93021428D01*
X136597619Y-92959523D01*
X136473809Y-92897619D01*
X136350000Y-92773809D01*
X136288095Y-92588095D01*
X136288095Y-92464285D01*
X136350000Y-92278571D01*
X136411904Y-92216666D01*
X137588095Y-90978571D02*
X137588095Y-91721428D01*
X137588095Y-91350000D02*
X136288095Y-91350000D01*
X136473809Y-91473809D01*
X136597619Y-91597619D01*
X136659523Y-91721428D01*
D12*
%TO.C,U1*%
X147000000Y-94440000D02*
X148950000Y-94440000D01*
X147000000Y-99560000D02*
X148950000Y-99560000D01*
X147000000Y-94440000D02*
X143550000Y-94440000D01*
X147000000Y-99560000D02*
X145050000Y-99560000D01*
%TO.C,R3*%
X138265000Y-96772936D02*
X138265000Y-97227064D01*
X139735000Y-96772936D02*
X139735000Y-97227064D01*
%TO.C,R2*%
X154735000Y-99772936D02*
X154735000Y-100227064D01*
X153265000Y-99772936D02*
X153265000Y-100227064D01*
%TO.C,R1*%
X153265000Y-93772936D02*
X153265000Y-94227064D01*
X154735000Y-93772936D02*
X154735000Y-94227064D01*
%TO.C,D1*%
X138040000Y-103860000D02*
X139960000Y-103860000D01*
X138040000Y-101000000D02*
X138040000Y-103860000D01*
X139960000Y-103860000D02*
X139960000Y-101000000D01*
%TO.C,C1*%
X139735000Y-92261252D02*
X139735000Y-91738748D01*
X138265000Y-92261252D02*
X138265000Y-91738748D01*
%TD*%
M02*
