%TF.GenerationSoftware,KiCad,Pcbnew,(6.0.8)*%
%TF.CreationDate,2023-01-21T17:58:08-05:00*%
%TF.ProjectId,Blinky 5.0,426c696e-6b79-4203-952e-302e6b696361,rev?*%
%TF.SameCoordinates,Original*%
%TF.FileFunction,Copper,L1,Top*%
%TF.FilePolarity,Positive*%
%FSLAX46Y46*%
G04 Gerber Fmt 4.6, Leading zero omitted, Abs format (unit mm)*
G04 Created by KiCad (PCBNEW (6.0.8)) date 2023-01-21 17:58:08*
%MOMM*%
%LPD*%
G01*
G04 APERTURE LIST*
G04 Aperture macros list*
%AMRoundRect*
0 Rectangle with rounded corners*
0 $1 Rounding radius*
0 $2 $3 $4 $5 $6 $7 $8 $9 X,Y pos of 4 corners*
0 Add a 4 corners polygon primitive as box body*
4,1,4,$2,$3,$4,$5,$6,$7,$8,$9,$2,$3,0*
0 Add four circle primitives for the rounded corners*
1,1,$1+$1,$2,$3*
1,1,$1+$1,$4,$5*
1,1,$1+$1,$6,$7*
1,1,$1+$1,$8,$9*
0 Add four rect primitives between the rounded corners*
20,1,$1+$1,$2,$3,$4,$5,0*
20,1,$1+$1,$4,$5,$6,$7,0*
20,1,$1+$1,$6,$7,$8,$9,0*
20,1,$1+$1,$8,$9,$2,$3,0*%
G04 Aperture macros list end*
%TA.AperFunction,SMDPad,CuDef*%
%ADD10RoundRect,0.150000X-0.825000X-0.150000X0.825000X-0.150000X0.825000X0.150000X-0.825000X0.150000X0*%
%TD*%
%TA.AperFunction,SMDPad,CuDef*%
%ADD11RoundRect,0.250000X-0.450000X0.350000X-0.450000X-0.350000X0.450000X-0.350000X0.450000X0.350000X0*%
%TD*%
%TA.AperFunction,SMDPad,CuDef*%
%ADD12RoundRect,0.250000X0.450000X-0.325000X0.450000X0.325000X-0.450000X0.325000X-0.450000X-0.325000X0*%
%TD*%
%TA.AperFunction,SMDPad,CuDef*%
%ADD13RoundRect,0.250000X0.475000X-0.337500X0.475000X0.337500X-0.475000X0.337500X-0.475000X-0.337500X0*%
%TD*%
%TA.AperFunction,ViaPad*%
%ADD14C,0.800000*%
%TD*%
%TA.AperFunction,Conductor*%
%ADD15C,0.250000*%
%TD*%
G04 APERTURE END LIST*
D10*
%TO.P,U1,1,GND*%
%TO.N,GND*%
X144525000Y-95095000D03*
%TO.P,U1,2,~{TRIG}*%
%TO.N,/THR*%
X144525000Y-96365000D03*
%TO.P,U1,3,OUT*%
%TO.N,/OUT*%
X144525000Y-97635000D03*
%TO.P,U1,4,~{RST}*%
%TO.N,/VDD*%
X144525000Y-98905000D03*
%TO.P,U1,5,CTRL*%
%TO.N,unconnected-(U1-Pad5)*%
X149475000Y-98905000D03*
%TO.P,U1,6,THR*%
%TO.N,/THR*%
X149475000Y-97635000D03*
%TO.P,U1,7,DIS*%
%TO.N,/DIS*%
X149475000Y-96365000D03*
%TO.P,U1,8,VDD*%
%TO.N,/VDD*%
X149475000Y-95095000D03*
%TD*%
D11*
%TO.P,R3,2*%
%TO.N,Net-(D1-Pad2)*%
X139000000Y-98000000D03*
%TO.P,R3,1*%
%TO.N,/OUT*%
X139000000Y-96000000D03*
%TD*%
%TO.P,R2,1*%
%TO.N,/DIS*%
X154000000Y-99000000D03*
%TO.P,R2,2*%
%TO.N,/THR*%
X154000000Y-101000000D03*
%TD*%
%TO.P,R1,2*%
%TO.N,/DIS*%
X154000000Y-95000000D03*
%TO.P,R1,1*%
%TO.N,/VDD*%
X154000000Y-93000000D03*
%TD*%
D12*
%TO.P,D1,2,A*%
%TO.N,Net-(D1-Pad2)*%
X139000000Y-100975000D03*
%TO.P,D1,1,K*%
%TO.N,GND*%
X139000000Y-103025000D03*
%TD*%
D13*
%TO.P,C1,2*%
%TO.N,GND*%
X139000000Y-90962500D03*
%TO.P,C1,1*%
%TO.N,/THR*%
X139000000Y-93037500D03*
%TD*%
D14*
%TO.N,/VDD*%
X160000000Y-91000000D03*
X134000000Y-91000000D03*
%TO.N,GND*%
X144000000Y-92000000D03*
X139000000Y-89000000D03*
X139000000Y-105000000D03*
%TD*%
D15*
%TO.N,/THR*%
X147635000Y-97635000D02*
X146365000Y-96365000D01*
X149475000Y-97635000D02*
X147635000Y-97635000D01*
X146365000Y-96365000D02*
X144525000Y-96365000D01*
%TO.N,/DIS*%
X152635000Y-96365000D02*
X154000000Y-95000000D01*
X149475000Y-96365000D02*
X152635000Y-96365000D01*
X154000000Y-99000000D02*
X154000000Y-95000000D01*
%TO.N,/THR*%
X154000000Y-101000000D02*
X150635000Y-97635000D01*
X150635000Y-97635000D02*
X149475000Y-97635000D01*
%TO.N,GND*%
X144000000Y-94570000D02*
X144000000Y-92000000D01*
X144525000Y-95095000D02*
X144000000Y-94570000D01*
X139000000Y-90962500D02*
X139000000Y-89000000D01*
X139000000Y-103025000D02*
X139000000Y-105000000D01*
%TO.N,Net-(D1-Pad2)*%
X139000000Y-98000000D02*
X139000000Y-100975000D01*
%TO.N,/OUT*%
X141100000Y-96000000D02*
X139000000Y-96000000D01*
X142735000Y-97635000D02*
X141100000Y-96000000D01*
X144525000Y-97635000D02*
X142735000Y-97635000D01*
%TO.N,/THR*%
X143265000Y-96365000D02*
X144525000Y-96365000D01*
X142500000Y-95600000D02*
X143265000Y-96365000D01*
X142500000Y-94700000D02*
X142500000Y-95600000D01*
X139000000Y-93037500D02*
X140837500Y-93037500D01*
X140837500Y-93037500D02*
X142500000Y-94700000D01*
%TD*%
%TA.AperFunction,Conductor*%
%TO.N,/VDD*%
G36*
X162633621Y-82528502D02*
G01*
X162680114Y-82582158D01*
X162691500Y-82634500D01*
X162691500Y-111365500D01*
X162671498Y-111433621D01*
X162617842Y-111480114D01*
X162565500Y-111491500D01*
X131434500Y-111491500D01*
X131366379Y-111471498D01*
X131319886Y-111417842D01*
X131308500Y-111365500D01*
X131308500Y-93425400D01*
X137766500Y-93425400D01*
X137766837Y-93428646D01*
X137766837Y-93428650D01*
X137775548Y-93512600D01*
X137777474Y-93531166D01*
X137833450Y-93698946D01*
X137926522Y-93849348D01*
X138051697Y-93974305D01*
X138057927Y-93978145D01*
X138057928Y-93978146D01*
X138195090Y-94062694D01*
X138202262Y-94067115D01*
X138267098Y-94088620D01*
X138363611Y-94120632D01*
X138363613Y-94120632D01*
X138370139Y-94122797D01*
X138376975Y-94123497D01*
X138376978Y-94123498D01*
X138420031Y-94127909D01*
X138474600Y-94133500D01*
X139525400Y-94133500D01*
X139528646Y-94133163D01*
X139528650Y-94133163D01*
X139624308Y-94123238D01*
X139624312Y-94123237D01*
X139631166Y-94122526D01*
X139637702Y-94120345D01*
X139637704Y-94120345D01*
X139769806Y-94076272D01*
X139798946Y-94066550D01*
X139949348Y-93973478D01*
X140074305Y-93848303D01*
X140146684Y-93730883D01*
X140199455Y-93683391D01*
X140253943Y-93671000D01*
X140522906Y-93671000D01*
X140591027Y-93691002D01*
X140612001Y-93707905D01*
X141829595Y-94925500D01*
X141863621Y-94987812D01*
X141866500Y-95014595D01*
X141866500Y-95521233D01*
X141865973Y-95532416D01*
X141864298Y-95539909D01*
X141864547Y-95547835D01*
X141864547Y-95547836D01*
X141864960Y-95560968D01*
X141847108Y-95629684D01*
X141794940Y-95677839D01*
X141725018Y-95690146D01*
X141659542Y-95662697D01*
X141649927Y-95654022D01*
X141603652Y-95607747D01*
X141596112Y-95599461D01*
X141592000Y-95592982D01*
X141542348Y-95546356D01*
X141539507Y-95543602D01*
X141519770Y-95523865D01*
X141516573Y-95521385D01*
X141507551Y-95513680D01*
X141475321Y-95483414D01*
X141468375Y-95479595D01*
X141468372Y-95479593D01*
X141457566Y-95473652D01*
X141441047Y-95462801D01*
X141440583Y-95462441D01*
X141425041Y-95450386D01*
X141417772Y-95447241D01*
X141417768Y-95447238D01*
X141384463Y-95432826D01*
X141373813Y-95427609D01*
X141335060Y-95406305D01*
X141315437Y-95401267D01*
X141296734Y-95394863D01*
X141285420Y-95389967D01*
X141285419Y-95389967D01*
X141278145Y-95386819D01*
X141270322Y-95385580D01*
X141270312Y-95385577D01*
X141234476Y-95379901D01*
X141222856Y-95377495D01*
X141187711Y-95368472D01*
X141187710Y-95368472D01*
X141180030Y-95366500D01*
X141159776Y-95366500D01*
X141140065Y-95364949D01*
X141127886Y-95363020D01*
X141120057Y-95361780D01*
X141112165Y-95362526D01*
X141076039Y-95365941D01*
X141064181Y-95366500D01*
X140236781Y-95366500D01*
X140168660Y-95346498D01*
X140129637Y-95306803D01*
X140052332Y-95181880D01*
X140048478Y-95175652D01*
X139923303Y-95050695D01*
X139917072Y-95046854D01*
X139778968Y-94961725D01*
X139778966Y-94961724D01*
X139772738Y-94957885D01*
X139612254Y-94904655D01*
X139611389Y-94904368D01*
X139611387Y-94904368D01*
X139604861Y-94902203D01*
X139598025Y-94901503D01*
X139598022Y-94901502D01*
X139554969Y-94897091D01*
X139500400Y-94891500D01*
X138499600Y-94891500D01*
X138496354Y-94891837D01*
X138496350Y-94891837D01*
X138400692Y-94901762D01*
X138400688Y-94901763D01*
X138393834Y-94902474D01*
X138387298Y-94904655D01*
X138387296Y-94904655D01*
X138255194Y-94948728D01*
X138226054Y-94958450D01*
X138075652Y-95051522D01*
X137950695Y-95176697D01*
X137946855Y-95182927D01*
X137946854Y-95182928D01*
X137867600Y-95311502D01*
X137857885Y-95327262D01*
X137802203Y-95495139D01*
X137801503Y-95501975D01*
X137801502Y-95501978D01*
X137800538Y-95511389D01*
X137791500Y-95599600D01*
X137791500Y-96400400D01*
X137802474Y-96506166D01*
X137804655Y-96512702D01*
X137804655Y-96512704D01*
X137837924Y-96612421D01*
X137858450Y-96673946D01*
X137951522Y-96824348D01*
X138025868Y-96898564D01*
X138038109Y-96910784D01*
X138072188Y-96973066D01*
X138067185Y-97043886D01*
X138038264Y-97088975D01*
X138023386Y-97103879D01*
X137950695Y-97176697D01*
X137946855Y-97182927D01*
X137946854Y-97182928D01*
X137913831Y-97236502D01*
X137857885Y-97327262D01*
X137802203Y-97495139D01*
X137791500Y-97599600D01*
X137791500Y-98400400D01*
X137791837Y-98403646D01*
X137791837Y-98403650D01*
X137801732Y-98499012D01*
X137802474Y-98506166D01*
X137804655Y-98512702D01*
X137804655Y-98512704D01*
X137833638Y-98599576D01*
X137858450Y-98673946D01*
X137951522Y-98824348D01*
X138076697Y-98949305D01*
X138227262Y-99042115D01*
X138280168Y-99059663D01*
X138338527Y-99100094D01*
X138365764Y-99165658D01*
X138366500Y-99179256D01*
X138366500Y-99820803D01*
X138346498Y-99888924D01*
X138292842Y-99935417D01*
X138280377Y-99940326D01*
X138232998Y-99956133D01*
X138232996Y-99956134D01*
X138226054Y-99958450D01*
X138075652Y-100051522D01*
X137950695Y-100176697D01*
X137857885Y-100327262D01*
X137802203Y-100495139D01*
X137791500Y-100599600D01*
X137791500Y-101350400D01*
X137791837Y-101353646D01*
X137791837Y-101353650D01*
X137797020Y-101403598D01*
X137802474Y-101456166D01*
X137804655Y-101462702D01*
X137804655Y-101462704D01*
X137848728Y-101594806D01*
X137858450Y-101623946D01*
X137951522Y-101774348D01*
X138076697Y-101899305D01*
X138080916Y-101901906D01*
X138121417Y-101959030D01*
X138124649Y-102029953D01*
X138089024Y-102091365D01*
X138081470Y-102097922D01*
X138075652Y-102101522D01*
X137950695Y-102226697D01*
X137857885Y-102377262D01*
X137802203Y-102545139D01*
X137791500Y-102649600D01*
X137791500Y-103400400D01*
X137802474Y-103506166D01*
X137858450Y-103673946D01*
X137951522Y-103824348D01*
X138076697Y-103949305D01*
X138227262Y-104042115D01*
X138280168Y-104059663D01*
X138338527Y-104100094D01*
X138365764Y-104165658D01*
X138366500Y-104179256D01*
X138366500Y-104297476D01*
X138346498Y-104365597D01*
X138334142Y-104381779D01*
X138260960Y-104463056D01*
X138165473Y-104628444D01*
X138106458Y-104810072D01*
X138086496Y-105000000D01*
X138106458Y-105189928D01*
X138165473Y-105371556D01*
X138260960Y-105536944D01*
X138388747Y-105678866D01*
X138543248Y-105791118D01*
X138549276Y-105793802D01*
X138549278Y-105793803D01*
X138711681Y-105866109D01*
X138717712Y-105868794D01*
X138811112Y-105888647D01*
X138898056Y-105907128D01*
X138898061Y-105907128D01*
X138904513Y-105908500D01*
X139095487Y-105908500D01*
X139101939Y-105907128D01*
X139101944Y-105907128D01*
X139188888Y-105888647D01*
X139282288Y-105868794D01*
X139288319Y-105866109D01*
X139450722Y-105793803D01*
X139450724Y-105793802D01*
X139456752Y-105791118D01*
X139611253Y-105678866D01*
X139739040Y-105536944D01*
X139834527Y-105371556D01*
X139893542Y-105189928D01*
X139913504Y-105000000D01*
X139893542Y-104810072D01*
X139834527Y-104628444D01*
X139739040Y-104463056D01*
X139665863Y-104381785D01*
X139635147Y-104317779D01*
X139633500Y-104297476D01*
X139633500Y-104179197D01*
X139653502Y-104111076D01*
X139707158Y-104064583D01*
X139719623Y-104059674D01*
X139767002Y-104043867D01*
X139767004Y-104043866D01*
X139773946Y-104041550D01*
X139924348Y-103948478D01*
X140049305Y-103823303D01*
X140142115Y-103672738D01*
X140197797Y-103504861D01*
X140208500Y-103400400D01*
X140208500Y-102649600D01*
X140197526Y-102543834D01*
X140141550Y-102376054D01*
X140048478Y-102225652D01*
X139923303Y-102100695D01*
X139919084Y-102098094D01*
X139878583Y-102040970D01*
X139875351Y-101970047D01*
X139910976Y-101908635D01*
X139918530Y-101902078D01*
X139924348Y-101898478D01*
X140049305Y-101773303D01*
X140110550Y-101673946D01*
X140138275Y-101628968D01*
X140138276Y-101628966D01*
X140142115Y-101622738D01*
X140168564Y-101542995D01*
X140195632Y-101461389D01*
X140195632Y-101461387D01*
X140197797Y-101454861D01*
X140208500Y-101350400D01*
X140208500Y-100599600D01*
X140197526Y-100493834D01*
X140141550Y-100326054D01*
X140048478Y-100175652D01*
X139923303Y-100050695D01*
X139884756Y-100026934D01*
X139778968Y-99961725D01*
X139778966Y-99961724D01*
X139772738Y-99957885D01*
X139719832Y-99940337D01*
X139661473Y-99899906D01*
X139634236Y-99834342D01*
X139633500Y-99820744D01*
X139633500Y-99179197D01*
X139635945Y-99170871D01*
X143048456Y-99170871D01*
X143089107Y-99310790D01*
X143095352Y-99325221D01*
X143171911Y-99454678D01*
X143181551Y-99467104D01*
X143287896Y-99573449D01*
X143300322Y-99583089D01*
X143429779Y-99659648D01*
X143444210Y-99665893D01*
X143590065Y-99708269D01*
X143602667Y-99710570D01*
X143631084Y-99712807D01*
X143636014Y-99713000D01*
X144252885Y-99713000D01*
X144268124Y-99708525D01*
X144269329Y-99707135D01*
X144271000Y-99699452D01*
X144271000Y-99694884D01*
X144779000Y-99694884D01*
X144783475Y-99710123D01*
X144784865Y-99711328D01*
X144792548Y-99712999D01*
X145413984Y-99712999D01*
X145418920Y-99712805D01*
X145447336Y-99710570D01*
X145459931Y-99708270D01*
X145605790Y-99665893D01*
X145620221Y-99659648D01*
X145749678Y-99583089D01*
X145762104Y-99573449D01*
X145868449Y-99467104D01*
X145878089Y-99454678D01*
X145954648Y-99325221D01*
X145960893Y-99310790D01*
X145999939Y-99176395D01*
X145999899Y-99162294D01*
X145992630Y-99159000D01*
X144797115Y-99159000D01*
X144781876Y-99163475D01*
X144780671Y-99164865D01*
X144779000Y-99172548D01*
X144779000Y-99694884D01*
X144271000Y-99694884D01*
X144271000Y-99177115D01*
X144266525Y-99161876D01*
X144265135Y-99160671D01*
X144257452Y-99159000D01*
X143063122Y-99159000D01*
X143049591Y-99162973D01*
X143048456Y-99170871D01*
X139635945Y-99170871D01*
X139653502Y-99111076D01*
X139707158Y-99064583D01*
X139719623Y-99059674D01*
X139767002Y-99043867D01*
X139767004Y-99043866D01*
X139773946Y-99041550D01*
X139924348Y-98948478D01*
X140049305Y-98823303D01*
X140130878Y-98690968D01*
X140138275Y-98678968D01*
X140138276Y-98678966D01*
X140142115Y-98672738D01*
X140197797Y-98504861D01*
X140199177Y-98491399D01*
X140208172Y-98403598D01*
X140208500Y-98400400D01*
X140208500Y-97599600D01*
X140197526Y-97493834D01*
X140171573Y-97416042D01*
X140143868Y-97333002D01*
X140141550Y-97326054D01*
X140048478Y-97175652D01*
X139961891Y-97089216D01*
X139927812Y-97026934D01*
X139932815Y-96956114D01*
X139961736Y-96911025D01*
X140044134Y-96828483D01*
X140049305Y-96823303D01*
X140056666Y-96811361D01*
X140129389Y-96693384D01*
X140182162Y-96645890D01*
X140236649Y-96633500D01*
X140785406Y-96633500D01*
X140853527Y-96653502D01*
X140874501Y-96670405D01*
X142231343Y-98027247D01*
X142238887Y-98035537D01*
X142243000Y-98042018D01*
X142248777Y-98047443D01*
X142292667Y-98088658D01*
X142295509Y-98091413D01*
X142315230Y-98111134D01*
X142318425Y-98113612D01*
X142327447Y-98121318D01*
X142359679Y-98151586D01*
X142366628Y-98155406D01*
X142377432Y-98161346D01*
X142393956Y-98172199D01*
X142409959Y-98184613D01*
X142450543Y-98202176D01*
X142461173Y-98207383D01*
X142499940Y-98228695D01*
X142507617Y-98230666D01*
X142507622Y-98230668D01*
X142519558Y-98233732D01*
X142538266Y-98240137D01*
X142556855Y-98248181D01*
X142564683Y-98249421D01*
X142564690Y-98249423D01*
X142600524Y-98255099D01*
X142612144Y-98257505D01*
X142647289Y-98266528D01*
X142654970Y-98268500D01*
X142675224Y-98268500D01*
X142694934Y-98270051D01*
X142714943Y-98273220D01*
X142722835Y-98272474D01*
X142758961Y-98269059D01*
X142770819Y-98268500D01*
X143002357Y-98268500D01*
X143070478Y-98288502D01*
X143116971Y-98342158D01*
X143127075Y-98412432D01*
X143110811Y-98458639D01*
X143095352Y-98484779D01*
X143089107Y-98499210D01*
X143050061Y-98633605D01*
X143050101Y-98647706D01*
X143057370Y-98651000D01*
X145986878Y-98651000D01*
X146000409Y-98647027D01*
X146001544Y-98639129D01*
X145960893Y-98499210D01*
X145954648Y-98484779D01*
X145878089Y-98355323D01*
X145872129Y-98347640D01*
X145846180Y-98281556D01*
X145860078Y-98211933D01*
X145870421Y-98195839D01*
X145874453Y-98191807D01*
X145959145Y-98048601D01*
X145962799Y-98036026D01*
X145984217Y-97962302D01*
X146005562Y-97888831D01*
X146008500Y-97851502D01*
X146008500Y-97418498D01*
X146005562Y-97381169D01*
X145959145Y-97221399D01*
X145939769Y-97188637D01*
X145922311Y-97119822D01*
X145944828Y-97052491D01*
X146000173Y-97008022D01*
X146048224Y-96998500D01*
X146050406Y-96998500D01*
X146118527Y-97018502D01*
X146139501Y-97035405D01*
X147131343Y-98027247D01*
X147138887Y-98035537D01*
X147143000Y-98042018D01*
X147148777Y-98047443D01*
X147192667Y-98088658D01*
X147195509Y-98091413D01*
X147215230Y-98111134D01*
X147218425Y-98113612D01*
X147227447Y-98121318D01*
X147259679Y-98151586D01*
X147266628Y-98155406D01*
X147277432Y-98161346D01*
X147293956Y-98172199D01*
X147309959Y-98184613D01*
X147350543Y-98202176D01*
X147361173Y-98207383D01*
X147399940Y-98228695D01*
X147407617Y-98230666D01*
X147407622Y-98230668D01*
X147419558Y-98233732D01*
X147438266Y-98240137D01*
X147456855Y-98248181D01*
X147464683Y-98249421D01*
X147464690Y-98249423D01*
X147500524Y-98255099D01*
X147512144Y-98257505D01*
X147547289Y-98266528D01*
X147554970Y-98268500D01*
X147575224Y-98268500D01*
X147594934Y-98270051D01*
X147614943Y-98273220D01*
X147622835Y-98272474D01*
X147658961Y-98269059D01*
X147670819Y-98268500D01*
X147951776Y-98268500D01*
X148019897Y-98288502D01*
X148066390Y-98342158D01*
X148076494Y-98412432D01*
X148060231Y-98458636D01*
X148040855Y-98491399D01*
X148038644Y-98499010D01*
X148038643Y-98499012D01*
X148036944Y-98504861D01*
X147994438Y-98651169D01*
X147991500Y-98688498D01*
X147991500Y-99121502D01*
X147991693Y-99123950D01*
X147991693Y-99123958D01*
X147993457Y-99146366D01*
X147994438Y-99158831D01*
X147999541Y-99176395D01*
X148038586Y-99310790D01*
X148040855Y-99318601D01*
X148044892Y-99325427D01*
X148121509Y-99454980D01*
X148121511Y-99454983D01*
X148125547Y-99461807D01*
X148243193Y-99579453D01*
X148250017Y-99583489D01*
X148250020Y-99583491D01*
X148357589Y-99647107D01*
X148386399Y-99664145D01*
X148394010Y-99666356D01*
X148394012Y-99666357D01*
X148446231Y-99681528D01*
X148546169Y-99710562D01*
X148552574Y-99711066D01*
X148552579Y-99711067D01*
X148581042Y-99713307D01*
X148581050Y-99713307D01*
X148583498Y-99713500D01*
X150366502Y-99713500D01*
X150368950Y-99713307D01*
X150368958Y-99713307D01*
X150397421Y-99711067D01*
X150397426Y-99711066D01*
X150403831Y-99710562D01*
X150503769Y-99681528D01*
X150555988Y-99666357D01*
X150555990Y-99666356D01*
X150563601Y-99664145D01*
X150592411Y-99647107D01*
X150699980Y-99583491D01*
X150699983Y-99583489D01*
X150706807Y-99579453D01*
X150824453Y-99461807D01*
X150828489Y-99454983D01*
X150828491Y-99454980D01*
X150905108Y-99325427D01*
X150909145Y-99318601D01*
X150911415Y-99310790D01*
X150950459Y-99176395D01*
X150955562Y-99158831D01*
X150956543Y-99146366D01*
X150981827Y-99080024D01*
X151038964Y-99037883D01*
X151109814Y-99033322D01*
X151171250Y-99067154D01*
X152754595Y-100650499D01*
X152788621Y-100712811D01*
X152791500Y-100739594D01*
X152791500Y-101400400D01*
X152791837Y-101403646D01*
X152791837Y-101403650D01*
X152797151Y-101454861D01*
X152802474Y-101506166D01*
X152858450Y-101673946D01*
X152951522Y-101824348D01*
X153076697Y-101949305D01*
X153082927Y-101953145D01*
X153082928Y-101953146D01*
X153220090Y-102037694D01*
X153227262Y-102042115D01*
X153307005Y-102068564D01*
X153388611Y-102095632D01*
X153388613Y-102095632D01*
X153395139Y-102097797D01*
X153401975Y-102098497D01*
X153401978Y-102098498D01*
X153445031Y-102102909D01*
X153499600Y-102108500D01*
X154500400Y-102108500D01*
X154503646Y-102108163D01*
X154503650Y-102108163D01*
X154599308Y-102098238D01*
X154599312Y-102098237D01*
X154606166Y-102097526D01*
X154612702Y-102095345D01*
X154612704Y-102095345D01*
X154744806Y-102051272D01*
X154773946Y-102041550D01*
X154924348Y-101948478D01*
X155049305Y-101823303D01*
X155076933Y-101778483D01*
X155138275Y-101678968D01*
X155138276Y-101678966D01*
X155142115Y-101672738D01*
X155197797Y-101504861D01*
X155208500Y-101400400D01*
X155208500Y-100599600D01*
X155197526Y-100493834D01*
X155141550Y-100326054D01*
X155048478Y-100175652D01*
X154961891Y-100089216D01*
X154927812Y-100026934D01*
X154932815Y-99956114D01*
X154961736Y-99911025D01*
X155044134Y-99828483D01*
X155049305Y-99823303D01*
X155118800Y-99710562D01*
X155138275Y-99678968D01*
X155138276Y-99678966D01*
X155142115Y-99672738D01*
X155173056Y-99579453D01*
X155195632Y-99511389D01*
X155195632Y-99511387D01*
X155197797Y-99504861D01*
X155208500Y-99400400D01*
X155208500Y-98599600D01*
X155199484Y-98512704D01*
X155198238Y-98500692D01*
X155198237Y-98500688D01*
X155197526Y-98493834D01*
X155194439Y-98484579D01*
X155143868Y-98333002D01*
X155141550Y-98326054D01*
X155048478Y-98175652D01*
X154923303Y-98050695D01*
X154917072Y-98046854D01*
X154778968Y-97961725D01*
X154778966Y-97961724D01*
X154772738Y-97957885D01*
X154719832Y-97940337D01*
X154661473Y-97899906D01*
X154634236Y-97834342D01*
X154633500Y-97820744D01*
X154633500Y-96179197D01*
X154653502Y-96111076D01*
X154707158Y-96064583D01*
X154719623Y-96059674D01*
X154767002Y-96043867D01*
X154767004Y-96043866D01*
X154773946Y-96041550D01*
X154924348Y-95948478D01*
X155049305Y-95823303D01*
X155065009Y-95797826D01*
X155138275Y-95678968D01*
X155138276Y-95678966D01*
X155142115Y-95672738D01*
X155183543Y-95547836D01*
X155195632Y-95511389D01*
X155195632Y-95511387D01*
X155197797Y-95504861D01*
X155199439Y-95488841D01*
X155208172Y-95403598D01*
X155208500Y-95400400D01*
X155208500Y-94599600D01*
X155205547Y-94571139D01*
X155198238Y-94500692D01*
X155198237Y-94500688D01*
X155197526Y-94493834D01*
X155192352Y-94478324D01*
X155143868Y-94333002D01*
X155141550Y-94326054D01*
X155048478Y-94175652D01*
X155033300Y-94160500D01*
X154961537Y-94088862D01*
X154927458Y-94026579D01*
X154932461Y-93955759D01*
X154961382Y-93910671D01*
X155043739Y-93828171D01*
X155052751Y-93816760D01*
X155137816Y-93678757D01*
X155143963Y-93665576D01*
X155195138Y-93511290D01*
X155198005Y-93497914D01*
X155207672Y-93403562D01*
X155208000Y-93397146D01*
X155208000Y-93272115D01*
X155203525Y-93256876D01*
X155202135Y-93255671D01*
X155194452Y-93254000D01*
X152810116Y-93254000D01*
X152794877Y-93258475D01*
X152793672Y-93259865D01*
X152792001Y-93267548D01*
X152792001Y-93397095D01*
X152792338Y-93403614D01*
X152802257Y-93499206D01*
X152805149Y-93512600D01*
X152856588Y-93666784D01*
X152862761Y-93679962D01*
X152948063Y-93817807D01*
X152957099Y-93829208D01*
X153038462Y-93910430D01*
X153072541Y-93972713D01*
X153067538Y-94043533D01*
X153038617Y-94088620D01*
X152955870Y-94171512D01*
X152955866Y-94171517D01*
X152950695Y-94176697D01*
X152946855Y-94182927D01*
X152946854Y-94182928D01*
X152878193Y-94294317D01*
X152857885Y-94327262D01*
X152855581Y-94334209D01*
X152818367Y-94446407D01*
X152802203Y-94495139D01*
X152791500Y-94599600D01*
X152791500Y-95260405D01*
X152771498Y-95328526D01*
X152754595Y-95349500D01*
X152409500Y-95694595D01*
X152347188Y-95728621D01*
X152320405Y-95731500D01*
X150997643Y-95731500D01*
X150929522Y-95711498D01*
X150883029Y-95657842D01*
X150872925Y-95587568D01*
X150889189Y-95541361D01*
X150904648Y-95515221D01*
X150910893Y-95500790D01*
X150949939Y-95366395D01*
X150949899Y-95352294D01*
X150942630Y-95349000D01*
X148013122Y-95349000D01*
X147999591Y-95352973D01*
X147998456Y-95360871D01*
X148039107Y-95500790D01*
X148045352Y-95515221D01*
X148121911Y-95644677D01*
X148127871Y-95652360D01*
X148153820Y-95718444D01*
X148139922Y-95788067D01*
X148129579Y-95804161D01*
X148125547Y-95808193D01*
X148040855Y-95951399D01*
X147994438Y-96111169D01*
X147991500Y-96148498D01*
X147991500Y-96581502D01*
X147994438Y-96618831D01*
X148021062Y-96710473D01*
X148034895Y-96758085D01*
X148040855Y-96778601D01*
X148060231Y-96811363D01*
X148077689Y-96880178D01*
X148055172Y-96947509D01*
X147999827Y-96991978D01*
X147951776Y-97001500D01*
X147949595Y-97001500D01*
X147881474Y-96981498D01*
X147860500Y-96964595D01*
X146868652Y-95972747D01*
X146861112Y-95964461D01*
X146857000Y-95957982D01*
X146807348Y-95911356D01*
X146804507Y-95908602D01*
X146784770Y-95888865D01*
X146781573Y-95886385D01*
X146772551Y-95878680D01*
X146746100Y-95853841D01*
X146740321Y-95848414D01*
X146733375Y-95844595D01*
X146733372Y-95844593D01*
X146722566Y-95838652D01*
X146706047Y-95827801D01*
X146700248Y-95823303D01*
X146690041Y-95815386D01*
X146682772Y-95812241D01*
X146682768Y-95812238D01*
X146649463Y-95797826D01*
X146638813Y-95792609D01*
X146600060Y-95771305D01*
X146580437Y-95766267D01*
X146561734Y-95759863D01*
X146550420Y-95754967D01*
X146550419Y-95754967D01*
X146543145Y-95751819D01*
X146535322Y-95750580D01*
X146535312Y-95750577D01*
X146499476Y-95744901D01*
X146487856Y-95742495D01*
X146452711Y-95733472D01*
X146452710Y-95733472D01*
X146445030Y-95731500D01*
X146424776Y-95731500D01*
X146405065Y-95729949D01*
X146396681Y-95728621D01*
X146385057Y-95726780D01*
X146363043Y-95728861D01*
X146341039Y-95730941D01*
X146329181Y-95731500D01*
X146048224Y-95731500D01*
X145980103Y-95711498D01*
X145933610Y-95657842D01*
X145923506Y-95587568D01*
X145939769Y-95541364D01*
X145959145Y-95508601D01*
X145961415Y-95500790D01*
X145981845Y-95430467D01*
X146005562Y-95348831D01*
X146007161Y-95328526D01*
X146008307Y-95313958D01*
X146008307Y-95313950D01*
X146008500Y-95311502D01*
X146008500Y-94878498D01*
X146005562Y-94841169D01*
X146000459Y-94823605D01*
X148000061Y-94823605D01*
X148000101Y-94837706D01*
X148007370Y-94841000D01*
X149202885Y-94841000D01*
X149218124Y-94836525D01*
X149219329Y-94835135D01*
X149221000Y-94827452D01*
X149221000Y-94822885D01*
X149729000Y-94822885D01*
X149733475Y-94838124D01*
X149734865Y-94839329D01*
X149742548Y-94841000D01*
X150936878Y-94841000D01*
X150950409Y-94837027D01*
X150951544Y-94829129D01*
X150910893Y-94689210D01*
X150904648Y-94674779D01*
X150828089Y-94545322D01*
X150818449Y-94532896D01*
X150712104Y-94426551D01*
X150699678Y-94416911D01*
X150570221Y-94340352D01*
X150555790Y-94334107D01*
X150409935Y-94291731D01*
X150397333Y-94289430D01*
X150368916Y-94287193D01*
X150363986Y-94287000D01*
X149747115Y-94287000D01*
X149731876Y-94291475D01*
X149730671Y-94292865D01*
X149729000Y-94300548D01*
X149729000Y-94822885D01*
X149221000Y-94822885D01*
X149221000Y-94305116D01*
X149216525Y-94289877D01*
X149215135Y-94288672D01*
X149207452Y-94287001D01*
X148586017Y-94287001D01*
X148581080Y-94287195D01*
X148552664Y-94289430D01*
X148540069Y-94291730D01*
X148394210Y-94334107D01*
X148379779Y-94340352D01*
X148250322Y-94416911D01*
X148237896Y-94426551D01*
X148131551Y-94532896D01*
X148121911Y-94545322D01*
X148045352Y-94674779D01*
X148039107Y-94689210D01*
X148000061Y-94823605D01*
X146000459Y-94823605D01*
X145976528Y-94741231D01*
X145961357Y-94689012D01*
X145961356Y-94689010D01*
X145959145Y-94681399D01*
X145912672Y-94602817D01*
X145878491Y-94545020D01*
X145878489Y-94545017D01*
X145874453Y-94538193D01*
X145756807Y-94420547D01*
X145749983Y-94416511D01*
X145749980Y-94416509D01*
X145620427Y-94339892D01*
X145620428Y-94339892D01*
X145613601Y-94335855D01*
X145605990Y-94333644D01*
X145605988Y-94333643D01*
X145543417Y-94315465D01*
X145453831Y-94289438D01*
X145447426Y-94288934D01*
X145447421Y-94288933D01*
X145418958Y-94286693D01*
X145418950Y-94286693D01*
X145416502Y-94286500D01*
X144759500Y-94286500D01*
X144691379Y-94266498D01*
X144644886Y-94212842D01*
X144633500Y-94160500D01*
X144633500Y-92727885D01*
X152792000Y-92727885D01*
X152796475Y-92743124D01*
X152797865Y-92744329D01*
X152805548Y-92746000D01*
X153727885Y-92746000D01*
X153743124Y-92741525D01*
X153744329Y-92740135D01*
X153746000Y-92732452D01*
X153746000Y-92727885D01*
X154254000Y-92727885D01*
X154258475Y-92743124D01*
X154259865Y-92744329D01*
X154267548Y-92746000D01*
X155189884Y-92746000D01*
X155205123Y-92741525D01*
X155206328Y-92740135D01*
X155207999Y-92732452D01*
X155207999Y-92602905D01*
X155207662Y-92596386D01*
X155197743Y-92500794D01*
X155194851Y-92487400D01*
X155143412Y-92333216D01*
X155137239Y-92320038D01*
X155051937Y-92182193D01*
X155042901Y-92170792D01*
X154928171Y-92056261D01*
X154916760Y-92047249D01*
X154778757Y-91962184D01*
X154765576Y-91956037D01*
X154611290Y-91904862D01*
X154597914Y-91901995D01*
X154503562Y-91892328D01*
X154497145Y-91892000D01*
X154272115Y-91892000D01*
X154256876Y-91896475D01*
X154255671Y-91897865D01*
X154254000Y-91905548D01*
X154254000Y-92727885D01*
X153746000Y-92727885D01*
X153746000Y-91910116D01*
X153741525Y-91894877D01*
X153740135Y-91893672D01*
X153732452Y-91892001D01*
X153502905Y-91892001D01*
X153496386Y-91892338D01*
X153400794Y-91902257D01*
X153387400Y-91905149D01*
X153233216Y-91956588D01*
X153220038Y-91962761D01*
X153082193Y-92048063D01*
X153070792Y-92057099D01*
X152956261Y-92171829D01*
X152947249Y-92183240D01*
X152862184Y-92321243D01*
X152856037Y-92334424D01*
X152804862Y-92488710D01*
X152801995Y-92502086D01*
X152792328Y-92596438D01*
X152792000Y-92602855D01*
X152792000Y-92727885D01*
X144633500Y-92727885D01*
X144633500Y-92702524D01*
X144653502Y-92634403D01*
X144665858Y-92618221D01*
X144739040Y-92536944D01*
X144814657Y-92405972D01*
X144831223Y-92377279D01*
X144831224Y-92377278D01*
X144834527Y-92371556D01*
X144893542Y-92189928D01*
X144913504Y-92000000D01*
X144902289Y-91893296D01*
X144894232Y-91816635D01*
X144894232Y-91816633D01*
X144893542Y-91810072D01*
X144834527Y-91628444D01*
X144739040Y-91463056D01*
X144725504Y-91448022D01*
X144615675Y-91326045D01*
X144615674Y-91326044D01*
X144611253Y-91321134D01*
X144456752Y-91208882D01*
X144450724Y-91206198D01*
X144450722Y-91206197D01*
X144288319Y-91133891D01*
X144288318Y-91133891D01*
X144282288Y-91131206D01*
X144188888Y-91111353D01*
X144101944Y-91092872D01*
X144101939Y-91092872D01*
X144095487Y-91091500D01*
X143904513Y-91091500D01*
X143898061Y-91092872D01*
X143898056Y-91092872D01*
X143811112Y-91111353D01*
X143717712Y-91131206D01*
X143711682Y-91133891D01*
X143711681Y-91133891D01*
X143549278Y-91206197D01*
X143549276Y-91206198D01*
X143543248Y-91208882D01*
X143388747Y-91321134D01*
X143384326Y-91326044D01*
X143384325Y-91326045D01*
X143274497Y-91448022D01*
X143260960Y-91463056D01*
X143165473Y-91628444D01*
X143106458Y-91810072D01*
X143105768Y-91816633D01*
X143105768Y-91816635D01*
X143097711Y-91893296D01*
X143086496Y-92000000D01*
X143106458Y-92189928D01*
X143165473Y-92371556D01*
X143168776Y-92377278D01*
X143168777Y-92377279D01*
X143185343Y-92405972D01*
X143260960Y-92536944D01*
X143334137Y-92618215D01*
X143364853Y-92682221D01*
X143366500Y-92702524D01*
X143366500Y-94305324D01*
X143346498Y-94373445D01*
X143304641Y-94413776D01*
X143300023Y-94416507D01*
X143300019Y-94416510D01*
X143293193Y-94420547D01*
X143269442Y-94444298D01*
X143207130Y-94478324D01*
X143136315Y-94473259D01*
X143079479Y-94430712D01*
X143063194Y-94401583D01*
X143062472Y-94399758D01*
X143062472Y-94399757D01*
X143059552Y-94392383D01*
X143033564Y-94356613D01*
X143027048Y-94346693D01*
X143008580Y-94315465D01*
X143008578Y-94315462D01*
X143004542Y-94308638D01*
X142990221Y-94294317D01*
X142977380Y-94279283D01*
X142970131Y-94269306D01*
X142965472Y-94262893D01*
X142931395Y-94234702D01*
X142922616Y-94226712D01*
X141341152Y-92645247D01*
X141333612Y-92636961D01*
X141329500Y-92630482D01*
X141279848Y-92583856D01*
X141277007Y-92581102D01*
X141257270Y-92561365D01*
X141254073Y-92558885D01*
X141245051Y-92551180D01*
X141238618Y-92545139D01*
X141212821Y-92520914D01*
X141205875Y-92517095D01*
X141205872Y-92517093D01*
X141195066Y-92511152D01*
X141178547Y-92500301D01*
X141178083Y-92499941D01*
X141162541Y-92487886D01*
X141155272Y-92484741D01*
X141155268Y-92484738D01*
X141121963Y-92470326D01*
X141111313Y-92465109D01*
X141072560Y-92443805D01*
X141052937Y-92438767D01*
X141034234Y-92432363D01*
X141022920Y-92427467D01*
X141022919Y-92427467D01*
X141015645Y-92424319D01*
X141007822Y-92423080D01*
X141007812Y-92423077D01*
X140971976Y-92417401D01*
X140960356Y-92414995D01*
X140925211Y-92405972D01*
X140925210Y-92405972D01*
X140917530Y-92404000D01*
X140897276Y-92404000D01*
X140877565Y-92402449D01*
X140865386Y-92400520D01*
X140857557Y-92399280D01*
X140849665Y-92400026D01*
X140813539Y-92403441D01*
X140801681Y-92404000D01*
X140254046Y-92404000D01*
X140185925Y-92383998D01*
X140146902Y-92344303D01*
X140077332Y-92231880D01*
X140073478Y-92225652D01*
X139948303Y-92100695D01*
X139944084Y-92098094D01*
X139903583Y-92040970D01*
X139900351Y-91970047D01*
X139935976Y-91908635D01*
X139943530Y-91902078D01*
X139949348Y-91898478D01*
X140074305Y-91773303D01*
X140167115Y-91622738D01*
X140222797Y-91454861D01*
X140233500Y-91350400D01*
X140233500Y-90574600D01*
X140222526Y-90468834D01*
X140166550Y-90301054D01*
X140073478Y-90150652D01*
X139948303Y-90025695D01*
X139942072Y-90021854D01*
X139803968Y-89936725D01*
X139803966Y-89936724D01*
X139797738Y-89932885D01*
X139740051Y-89913751D01*
X139719833Y-89907045D01*
X139661473Y-89866614D01*
X139634236Y-89801050D01*
X139633500Y-89787452D01*
X139633500Y-89702524D01*
X139653502Y-89634403D01*
X139665858Y-89618221D01*
X139739040Y-89536944D01*
X139834527Y-89371556D01*
X139893542Y-89189928D01*
X139913504Y-89000000D01*
X139893542Y-88810072D01*
X139834527Y-88628444D01*
X139739040Y-88463056D01*
X139611253Y-88321134D01*
X139456752Y-88208882D01*
X139450724Y-88206198D01*
X139450722Y-88206197D01*
X139288319Y-88133891D01*
X139288318Y-88133891D01*
X139282288Y-88131206D01*
X139188888Y-88111353D01*
X139101944Y-88092872D01*
X139101939Y-88092872D01*
X139095487Y-88091500D01*
X138904513Y-88091500D01*
X138898061Y-88092872D01*
X138898056Y-88092872D01*
X138811113Y-88111353D01*
X138717712Y-88131206D01*
X138711682Y-88133891D01*
X138711681Y-88133891D01*
X138549278Y-88206197D01*
X138549276Y-88206198D01*
X138543248Y-88208882D01*
X138388747Y-88321134D01*
X138260960Y-88463056D01*
X138165473Y-88628444D01*
X138106458Y-88810072D01*
X138086496Y-89000000D01*
X138106458Y-89189928D01*
X138165473Y-89371556D01*
X138260960Y-89536944D01*
X138334137Y-89618215D01*
X138364853Y-89682221D01*
X138366500Y-89702524D01*
X138366500Y-89787462D01*
X138346498Y-89855583D01*
X138292842Y-89902076D01*
X138280376Y-89906986D01*
X138219347Y-89927347D01*
X138201054Y-89933450D01*
X138050652Y-90026522D01*
X137925695Y-90151697D01*
X137832885Y-90302262D01*
X137777203Y-90470139D01*
X137766500Y-90574600D01*
X137766500Y-91350400D01*
X137777474Y-91456166D01*
X137779655Y-91462702D01*
X137779655Y-91462704D01*
X137781680Y-91468774D01*
X137833450Y-91623946D01*
X137926522Y-91774348D01*
X138051697Y-91899305D01*
X138055916Y-91901906D01*
X138096417Y-91959030D01*
X138099649Y-92029953D01*
X138064024Y-92091365D01*
X138056470Y-92097922D01*
X138050652Y-92101522D01*
X137925695Y-92226697D01*
X137921855Y-92232927D01*
X137921854Y-92232928D01*
X137868159Y-92320038D01*
X137832885Y-92377262D01*
X137820370Y-92414995D01*
X137795920Y-92488710D01*
X137777203Y-92545139D01*
X137776503Y-92551975D01*
X137776502Y-92551978D01*
X137775794Y-92558892D01*
X137766500Y-92649600D01*
X137766500Y-93425400D01*
X131308500Y-93425400D01*
X131308500Y-82634500D01*
X131328502Y-82566379D01*
X131382158Y-82519886D01*
X131434500Y-82508500D01*
X162565500Y-82508500D01*
X162633621Y-82528502D01*
G37*
%TD.AperFunction*%
%TD*%
M02*
